<svg width="20" height="21" viewBox="0 0 20 21" fill="none" xmlns="http://www.w3.org/2000/svg">
<path d="M14.0004 7.5V4.5C14.0004 2.29086 12.2095 0.5 10.0004 0.5C7.79123 0.5 6.00037 2.29086 6.00037 4.5V7.5M1.59237 8.85196L0.992373 15.252C0.821775 17.0717 0.736477 17.9815 1.03842 18.6843C1.30367 19.3016 1.76849 19.8121 2.35839 20.1338C3.0299 20.5 3.94374 20.5 5.77142 20.5H14.2293C16.057 20.5 16.9708 20.5 17.6423 20.1338C18.2322 19.8121 18.6971 19.3016 18.9623 18.6843C19.2643 17.9815 19.179 17.0717 19.0084 15.252L18.4084 8.85197C18.2643 7.31535 18.1923 6.54704 17.8467 5.96616C17.5424 5.45458 17.0927 5.04511 16.555 4.78984C15.9444 4.5 15.1727 4.5 13.6293 4.5L6.37142 4.5C4.82806 4.5 4.05638 4.5 3.44579 4.78984C2.90803 5.04511 2.45838 5.45458 2.15403 5.96616C1.80846 6.54704 1.73643 7.31534 1.59237 8.85196Z" stroke="#FCFCFC" stroke-linecap="round" stroke-linejoin="round"/>
</svg>
