<svg width="24" height="24" viewBox="0 0 24 24" fill="none" xmlns="http://www.w3.org/2000/svg">
<path d="M23.1836 7.38156C23.171 6.43484 22.9938 5.49753 22.6598 4.61156C22.3703 3.86425 21.928 3.18556 21.3613 2.61885C20.7946 2.05214 20.1159 1.60988 19.3686 1.32031C18.494 0.992009 17.5701 0.814489 16.6361 0.795313C15.4336 0.741563 15.0523 0.726562 11.9998 0.726562C8.94734 0.726562 8.55609 0.726563 7.36234 0.795313C6.42879 0.81463 5.50528 0.992148 4.63109 1.32031C3.88367 1.60967 3.20487 2.05187 2.63813 2.6186C2.0714 3.18534 1.62921 3.86414 1.33984 4.61156C1.01088 5.48548 0.833748 6.4092 0.816094 7.34281C0.762344 8.54656 0.746094 8.92781 0.746094 11.9803C0.746094 15.0328 0.746094 15.4228 0.816094 16.6178C0.834844 17.5528 1.01109 18.4753 1.33984 19.3516C1.62969 20.0988 2.07221 20.7773 2.63914 21.3438C3.20606 21.9103 3.88492 22.3523 4.63234 22.6416C5.50414 22.9831 6.42781 23.1733 7.36359 23.2041C8.56734 23.2578 8.9486 23.2741 12.0011 23.2741C15.0536 23.2741 15.4448 23.2741 16.6386 23.2041C17.5725 23.1857 18.4965 23.0086 19.3711 22.6803C20.1182 22.3904 20.7967 21.948 21.3634 21.3814C21.9301 20.8147 22.3724 20.1362 22.6623 19.3891C22.9911 18.5141 23.1673 17.5916 23.1861 16.6553C23.2398 15.4528 23.2561 15.0716 23.2561 12.0178C23.2536 8.96531 23.2536 8.57781 23.1836 7.38156ZM11.9923 17.7528C8.79984 17.7528 6.21359 15.1666 6.21359 11.9741C6.21359 8.78156 8.79984 6.19531 11.9923 6.19531C13.525 6.19531 14.9948 6.80414 16.0785 7.88787C17.1623 8.9716 17.7711 10.4414 17.7711 11.9741C17.7711 13.5067 17.1623 14.9765 16.0785 16.0603C14.9948 17.144 13.525 17.7528 11.9923 17.7528ZM18.0011 7.32906C17.8241 7.32923 17.6488 7.29449 17.4852 7.22683C17.3217 7.15917 17.1731 7.05992 17.0479 6.93476C16.9227 6.8096 16.8235 6.66098 16.7558 6.49742C16.6882 6.33386 16.6534 6.15857 16.6536 5.98156C16.6536 5.80469 16.6884 5.62955 16.7561 5.46614C16.8238 5.30273 16.923 5.15425 17.0481 5.02918C17.1732 4.90411 17.3216 4.8049 17.485 4.73721C17.6485 4.66953 17.8236 4.63469 18.0005 4.63469C18.1773 4.63469 18.3525 4.66953 18.5159 4.73721C18.6793 4.8049 18.8278 4.90411 18.9529 5.02918C19.0779 5.15425 19.1771 5.30273 19.2448 5.46614C19.3125 5.62955 19.3473 5.80469 19.3473 5.98156C19.3473 6.72656 18.7448 7.32906 18.0011 7.32906Z" fill="#FCFCFC"/>
</svg>
