<svg width="140" height="76" viewBox="0 0 140 76" fill="none" xmlns="http://www.w3.org/2000/svg">
<path d="M127.909 54.1275C127.909 54.4805 127.913 54.79 127.921 55.056C127.934 55.3179 127.947 55.5445 127.959 55.7352C127.976 55.9259 127.996 56.0862 128.016 56.2147C128.041 56.3439 128.066 56.4517 128.091 56.5387V56.5643H126.576V56.5387C126.6 56.4517 126.623 56.3439 126.645 56.2147C126.671 56.0855 126.689 55.9259 126.703 55.7352C126.719 55.5445 126.732 55.3179 126.74 55.056C126.754 54.7942 126.759 54.4853 126.759 54.1275V50.0697C126.759 49.7167 126.753 49.4099 126.74 49.1481C126.734 48.9193 126.722 48.6907 126.703 48.4627C126.693 48.3016 126.674 48.1412 126.645 47.9825C126.629 47.8712 126.606 47.7609 126.576 47.6523V47.6274L126.841 47.6523C126.92 47.6605 127.009 47.6668 127.106 47.6702H127.415C127.579 47.6702 127.801 47.6523 128.078 47.6149C128.36 47.5728 128.718 47.5521 129.152 47.5521C129.556 47.5521 129.928 47.606 130.27 47.7137C130.614 47.8222 130.914 47.9797 131.166 48.1877C131.419 48.3957 131.614 48.6513 131.753 48.9546C131.896 49.2531 131.968 49.5944 131.968 49.9765C131.968 50.2763 131.927 50.5541 131.848 50.8118C131.776 51.058 131.665 51.2914 131.519 51.5034C131.38 51.7124 131.21 51.8994 131.014 52.0582C130.811 52.219 130.589 52.353 130.351 52.4568L132.567 55.5293C132.677 55.6834 132.779 55.816 132.87 55.928C132.968 56.0406 133.059 56.138 133.143 56.2216C133.231 56.2997 133.316 56.3667 133.395 56.4206C133.474 56.4703 133.557 56.5097 133.642 56.5387V56.5643H131.817C131.792 56.4543 131.75 56.349 131.691 56.2527C131.621 56.116 131.541 55.9848 131.451 55.8603L129.216 52.7498L128.925 52.7753C128.826 52.7793 128.727 52.7811 128.628 52.7809C128.51 52.7809 128.39 52.7767 128.269 52.7684C128.148 52.7599 128.028 52.7453 127.909 52.7249V54.1275ZM127.909 52.2385C128.022 52.2634 128.137 52.282 128.256 52.2945C128.373 52.3028 128.486 52.3069 128.596 52.3069C128.912 52.3069 129.2 52.262 129.46 52.1708C129.721 52.0748 129.942 51.9317 130.124 51.7404C130.309 51.5497 130.452 51.3127 130.553 51.0301C130.653 50.7434 130.704 50.409 130.704 50.0269C130.704 49.7153 130.668 49.4334 130.597 49.1792C130.536 48.9454 130.426 48.7267 130.275 48.5366C130.136 48.3575 129.953 48.2161 129.744 48.1255C129.508 48.0211 129.252 47.9698 128.994 47.9756C128.761 47.9717 128.529 47.9862 128.299 48.0191C128.166 48.0383 128.035 48.0695 127.908 48.1124V52.2385H127.909ZM117.829 56.5387C117.855 56.451 117.877 56.3432 117.899 56.2147C117.924 56.0848 117.945 55.9252 117.962 55.7345C117.98 55.5438 117.993 55.3172 118.001 55.0553C118.009 54.7893 118.014 54.4798 118.014 54.1268V50.0697C118.014 49.716 118.009 49.4085 118.001 49.1474C117.993 48.8807 117.98 48.6527 117.962 48.4613C117.95 48.2984 117.928 48.1363 117.899 47.9756C117.882 47.8664 117.859 47.7582 117.829 47.6516V47.6267H119.345V47.6516C119.315 47.7585 119.29 47.8666 119.269 47.9756C119.245 48.1368 119.226 48.2988 119.213 48.4613C119.199 48.6527 119.187 48.8807 119.174 49.1474C119.166 49.4085 119.161 49.716 119.161 50.0697V51.4599L122.849 48.4869C123.262 48.1545 123.468 47.8678 123.468 47.6267H125.242V47.6516C124.972 47.7192 124.715 47.8331 124.484 47.988C124.232 48.1497 123.963 48.3487 123.677 48.5864L120.418 51.2781L124.34 55.5279C124.505 55.6944 124.643 55.8333 124.757 55.9452C124.876 56.053 124.978 56.1449 125.066 56.2188C125.155 56.29 125.235 56.3494 125.306 56.3998C125.382 56.4454 125.461 56.4917 125.54 56.5373V56.5615H123.69C123.665 56.5112 123.636 56.4633 123.602 56.4185C123.56 56.355 123.513 56.2945 123.462 56.2375C123.408 56.1709 123.352 56.1066 123.292 56.0447C123.236 55.9817 123.179 55.9192 123.121 55.8575L119.162 51.5697V54.1247C119.162 54.4777 119.167 54.7873 119.175 55.0533C119.189 55.3151 119.201 55.5417 119.215 55.7324C119.231 55.9231 119.25 56.0834 119.271 56.2126C119.296 56.3411 119.321 56.4489 119.346 56.5367V56.5608H117.831V56.5387H117.829ZM114.736 50.0697C114.736 49.716 114.731 49.4085 114.723 49.1474C114.717 48.9184 114.704 48.6896 114.685 48.4613C114.672 48.2988 114.653 48.1368 114.628 47.9756C114.612 47.8663 114.588 47.7581 114.558 47.6516V47.6267H115.682V47.6516C115.652 47.7585 115.627 47.8666 115.607 47.9756C115.582 48.1368 115.563 48.2988 115.55 48.4613C115.537 48.6527 115.525 48.8807 115.511 49.1474C115.503 49.4085 115.498 49.716 115.498 50.0697V53.4352C115.498 54.0286 115.412 54.5365 115.24 54.9559C115.084 55.3507 114.838 55.7045 114.52 55.9895C114.2 56.2624 113.823 56.4607 113.415 56.5698C112.957 56.6984 112.483 56.7614 112.007 56.7571C111.526 56.7603 111.046 56.7015 110.581 56.5822C110.162 56.4762 109.77 56.2851 109.431 56.0212C109.099 55.7489 108.837 55.4028 108.666 55.0111C108.482 54.5959 108.389 54.0908 108.389 53.4973V50.0697C108.389 49.716 108.385 49.4085 108.377 49.1474C108.37 48.9184 108.357 48.6896 108.338 48.4613C108.325 48.2985 108.304 48.1364 108.275 47.9756C108.258 47.8663 108.235 47.7581 108.205 47.6516V47.6267H109.721V47.6516C109.691 47.7585 109.666 47.8666 109.645 47.9756C109.625 48.1048 109.604 48.2672 109.588 48.4613C109.572 48.6527 109.559 48.8807 109.55 49.1474C109.541 49.4085 109.537 49.716 109.537 50.0697V53.5664C109.537 54.0604 109.611 54.4701 109.758 54.7935C109.91 55.1141 110.107 55.369 110.351 55.5604C110.596 55.7469 110.874 55.8775 111.185 55.9528C111.812 56.1021 112.465 56.1021 113.092 55.9528C113.393 55.8821 113.675 55.7482 113.919 55.5604C114.163 55.369 114.359 55.1141 114.506 54.7935C114.658 54.4695 114.733 54.0597 114.733 53.5664V50.0697H114.736ZM100.235 55.6986H106.7V56.4337H100.235V55.6986ZM97.1045 56.5643V56.5387C97.1129 56.5187 97.1192 56.4876 97.1234 56.4455C97.1276 56.4033 97.1297 56.3667 97.1297 56.3335C97.1297 56.2043 97.1115 56.0634 97.073 55.91C97.0249 55.7087 96.9572 55.5125 96.8707 55.3241L96.107 53.6286C95.7935 53.6189 95.4799 53.6145 95.1662 53.6155H92.9311C92.6245 53.6155 92.3459 53.6203 92.0981 53.6286L91.3722 55.2744C91.3092 55.4284 91.2406 55.5963 91.1699 55.7787C91.0992 55.9611 91.0628 56.1463 91.0628 56.3335C91.0628 56.3874 91.0677 56.4337 91.0761 56.4703C91.0808 56.4942 91.089 56.5172 91.1006 56.5387V56.5643H89.8126V56.5387C89.8882 56.4607 89.9827 56.3218 90.0968 56.1214C90.2102 55.9176 90.3341 55.664 90.4692 55.3607L94.0868 47.4395H94.5922L98.0208 55.0546C98.0999 55.2336 98.1832 55.4084 98.2672 55.5784C98.3554 55.7442 98.4373 55.8941 98.5136 56.0268C98.5899 56.1594 98.6571 56.2713 98.7159 56.3632C98.7747 56.4551 98.8153 56.5132 98.8363 56.5373V56.5629H97.1045V56.5643ZM93.013 53.08H93.7641C94.021 53.0759 94.2716 53.0738 94.5159 53.0738C94.7536 53.0698 94.9914 53.0677 95.2292 53.0676L95.848 53.0552L94.0735 49.0969L92.3319 53.0793L93.013 53.08ZM80.6909 56.5387C80.7154 56.451 80.7392 56.3432 80.7609 56.2147C80.79 56.0558 80.811 55.8955 80.8239 55.7345C80.8407 55.5438 80.8533 55.3172 80.8624 55.0553C80.8708 54.7893 80.875 54.4798 80.875 54.1268V50.0697C80.875 49.716 80.8708 49.4085 80.8624 49.1474C80.8533 48.8807 80.8414 48.6527 80.8239 48.4613C80.8117 48.2984 80.7906 48.1363 80.7609 47.9756C80.7439 47.8663 80.7206 47.7581 80.6909 47.6516V47.6267H82.2057V47.6516C82.1765 47.7586 82.1515 47.8667 82.1308 47.9756C82.106 48.1368 82.0871 48.2988 82.0741 48.4613C82.0608 48.6527 82.0489 48.8807 82.0363 49.1474C82.0279 49.4085 82.023 49.716 82.023 50.0697V51.4599L85.7113 48.4869C86.1236 48.1545 86.3301 47.8678 86.3301 47.6267H88.1039V47.6516C87.8335 47.7192 87.5771 47.8331 87.3465 47.988C87.0938 48.1497 86.8243 48.3487 86.538 48.5864L83.2809 51.2781L87.2016 55.5279C87.3661 55.6944 87.5047 55.8333 87.6188 55.9452C87.7364 56.053 87.8393 56.1449 87.9282 56.2188C88.0164 56.29 88.0962 56.3494 88.1676 56.3998C88.2439 56.4454 88.3216 56.4917 88.4014 56.5373V56.5615H86.5513C86.5266 56.5111 86.4968 56.4631 86.4624 56.4185C86.4208 56.3547 86.3742 56.2942 86.3231 56.2375C86.2696 56.1708 86.2131 56.1064 86.1537 56.0447C86.0979 55.9813 86.041 55.9189 85.9829 55.8575L82.0244 51.5697V54.1247C82.0244 54.4777 82.0293 54.7873 82.0377 55.0533C82.0503 55.3151 82.0622 55.5417 82.0755 55.7324C82.0923 55.9231 82.1112 56.0834 82.1322 56.2126C82.153 56.3215 82.178 56.4296 82.2071 56.5367V56.5608H80.6923V56.5387H80.6909ZM72.3602 47.6267V47.6516C72.3494 47.6816 72.3433 47.713 72.342 47.7448C72.3371 47.787 72.335 47.8243 72.335 47.8575C72.335 47.9867 72.3511 48.1297 72.3854 48.2872C72.4232 48.4413 72.4918 48.634 72.594 48.8669L75.3919 55.0927L78.0939 48.9173C78.1569 48.7632 78.2248 48.5953 78.2962 48.4129C78.3676 48.2299 78.4026 48.0454 78.4026 47.8581C78.4039 47.7877 78.3911 47.7177 78.3648 47.6523V47.6274H79.6591V47.6523C79.58 47.731 79.4827 47.872 79.3686 48.0758C79.2343 48.3223 79.1101 48.574 78.9962 48.8303L75.3786 56.7577H74.8732L71.4446 49.1356C71.3663 48.9606 71.282 48.7883 71.1919 48.6188C71.1079 48.453 71.0281 48.3031 70.9511 48.1697C70.8879 48.0534 70.8209 47.9391 70.7502 47.8271C70.7128 47.7672 70.6726 47.7091 70.6298 47.6529V47.6281H72.3602V47.6267ZM68.0279 56.5387C68.0531 56.451 68.0762 56.3432 68.0972 56.2147C68.1182 56.0848 68.1371 55.9252 68.1546 55.7345C68.1714 55.5438 68.184 55.3172 68.1924 55.0553C68.2008 54.7893 68.205 54.4798 68.205 54.1268V50.0697C68.205 49.716 68.2008 49.4085 68.1924 49.1474C68.184 48.8807 68.1714 48.6527 68.1546 48.4613C68.1418 48.2987 68.1226 48.1367 68.0972 47.9756C68.0804 47.8664 68.0573 47.7582 68.0279 47.6516V47.6267H69.5364V47.6516C69.5069 47.7586 69.4817 47.8667 69.4608 47.9756C69.4363 48.1368 69.4176 48.2988 69.4048 48.4613C69.3915 48.6527 69.3796 48.8807 69.3663 49.1474C69.3579 49.4085 69.3537 49.716 69.3537 50.0697V54.1268C69.3537 54.4798 69.3579 54.7893 69.3663 55.0553C69.3796 55.3172 69.3915 55.5438 69.4048 55.7345C69.4209 55.9252 69.4405 56.0855 69.4608 56.2147C69.4867 56.3432 69.5112 56.451 69.5364 56.5387V56.5629H68.0279V56.5387ZM62.2347 48.176C61.7384 48.176 61.2897 48.1981 60.89 48.2444C60.4903 48.2865 60.1452 48.3321 59.8547 48.3819C59.518 48.444 59.217 48.5124 58.9517 48.587L59.1351 47.5776C59.1855 47.5818 59.2611 47.5859 59.3626 47.5901L59.6972 47.6032L60.0885 47.6163C60.2278 47.6163 60.358 47.6177 60.4805 47.6219C60.6023 47.6219 60.7101 47.6246 60.8025 47.6288H64.8184C64.915 47.6246 65.0249 47.6219 65.1467 47.6219C65.2685 47.6177 65.3966 47.6163 65.5317 47.6163L65.9237 47.6032C66.0497 47.5991 66.1638 47.5942 66.2646 47.5901C66.3661 47.5859 66.4417 47.5818 66.4921 47.5776L66.6748 48.587C66.3748 48.5059 66.0714 48.4374 65.7655 48.3819C65.422 48.3248 65.0767 48.2789 64.7302 48.2444C64.2837 48.1963 63.8347 48.1735 63.3855 48.176V54.1275C63.3855 54.4805 63.3897 54.79 63.3981 55.056C63.4107 55.3179 63.4233 55.5445 63.4359 55.7352C63.4527 55.9259 63.4716 56.0862 63.4926 56.2147C63.5178 56.3439 63.543 56.4517 63.5682 56.5387V56.5643H62.059V56.5387C62.0842 56.4517 62.1073 56.3439 62.1283 56.2147C62.1493 56.0855 62.1682 55.9259 62.185 55.7352C62.2018 55.5445 62.2144 55.3179 62.2228 55.056C62.2312 54.79 62.2354 54.4805 62.2354 54.1275L62.2347 48.176ZM58.2965 56.5643V56.5387C58.3049 56.5187 58.3112 56.4876 58.3154 56.4455C58.3196 56.4033 58.3217 56.3667 58.3217 56.3335C58.3217 56.2043 58.3028 56.0634 58.265 55.91C58.2166 55.7088 58.1489 55.5126 58.0627 55.3241L57.299 53.6286C56.9855 53.6189 56.6719 53.6146 56.3582 53.6155H54.1231C53.8158 53.6155 53.5379 53.6203 53.2901 53.6286L52.5635 55.2744C52.5005 55.4284 52.4326 55.5963 52.3612 55.7787C52.2906 55.9554 52.2543 56.1436 52.2541 56.3335C52.2541 56.3874 52.2583 56.4337 52.2667 56.4703C52.2715 56.4943 52.28 56.5173 52.2919 56.5387V56.5643H51.0039V56.5387C51.0795 56.4607 51.1747 56.3218 51.2881 56.1214C51.4022 55.9176 51.5261 55.664 51.6605 55.3607L55.2788 47.4395H55.7835L59.2121 55.0546C59.2919 55.2336 59.3738 55.4084 59.4585 55.5784C59.5467 55.7442 59.6293 55.8941 59.7049 56.0268C59.7805 56.1594 59.8484 56.2713 59.9072 56.3632C59.966 56.4551 60.0059 56.5132 60.0269 56.5373V56.5629H58.2965V56.5643ZM54.205 53.08H54.9561C55.213 53.0759 55.4636 53.0738 55.7079 53.0738C55.9456 53.0698 56.1834 53.0677 56.4212 53.0676L57.04 53.0552L55.2655 49.0969L53.5225 53.0793L54.205 53.08ZM43.9374 54.1275C43.9374 54.4805 43.9416 54.79 43.95 55.056C43.9626 55.3179 43.9752 55.5445 43.9878 55.7352C44.0046 55.9259 44.0235 56.0862 44.0445 56.2147C44.0697 56.3439 44.0949 56.4517 44.1201 56.5387V56.5643H42.6046V56.5387C42.6298 56.4517 42.6529 56.3439 42.6739 56.2147C42.6991 56.0855 42.718 55.9259 42.7313 55.7352C42.7481 55.5445 42.7607 55.3179 42.7691 55.056C42.7817 54.7942 42.788 54.4853 42.788 54.1275V50.0697C42.788 49.7167 42.7817 49.4099 42.7691 49.1481C42.7607 48.8821 42.7481 48.6534 42.7313 48.4627C42.7225 48.3016 42.7034 48.1412 42.6739 47.9825C42.6574 47.8712 42.6343 47.7609 42.6046 47.6523V47.6274L42.8699 47.6523C42.9497 47.6605 43.0379 47.6668 43.1352 47.6702H43.4446C43.6084 47.6702 43.8296 47.6523 44.1075 47.6149C44.3896 47.5728 44.7473 47.5521 45.1806 47.5521C45.5852 47.5521 45.9576 47.606 46.2985 47.7137C46.6436 47.8222 46.9425 47.9797 47.1952 48.1877C47.4479 48.3957 47.6439 48.6513 47.7825 48.9546C47.926 49.2531 47.9974 49.5944 47.9974 49.9765C47.9974 50.2763 47.9575 50.5541 47.8777 50.8118C47.8021 51.0653 47.6922 51.2954 47.5494 51.5034C47.4096 51.7119 47.2393 51.8989 47.044 52.0582C46.8416 52.219 46.6187 52.353 46.3811 52.4568L48.5973 55.5293C48.7072 55.6834 48.808 55.816 48.9004 55.928C48.997 56.0406 49.088 56.138 49.172 56.2216C49.2602 56.2997 49.3449 56.3667 49.4247 56.4206C49.5052 56.4703 49.5871 56.5097 49.6711 56.5387V56.5643H47.8462C47.8218 56.4543 47.7792 56.349 47.7202 56.2527C47.6508 56.1158 47.5705 55.9846 47.4801 55.8603L45.245 52.7498L44.9545 52.7753C44.8556 52.7793 44.7567 52.7811 44.6577 52.7809C44.5401 52.7809 44.4197 52.7767 44.2979 52.7684C44.1773 52.7598 44.0572 52.7453 43.9381 52.7249V54.1275H43.9374ZM43.9374 52.2385C44.0508 52.2634 44.167 52.282 44.2846 52.2945C44.4022 52.3028 44.5163 52.3069 44.6255 52.3069C44.9412 52.3069 45.2296 52.262 45.49 52.1708C45.7421 52.0807 45.9692 51.9332 46.1529 51.7404C46.3384 51.5497 46.4812 51.3127 46.582 51.0301C46.6835 50.7434 46.7339 50.409 46.7339 50.0269C46.7339 49.7153 46.6982 49.4334 46.6268 49.1792C46.5649 48.9456 46.4553 48.7269 46.3048 48.5366C46.1655 48.358 45.9831 48.2166 45.7742 48.1255C45.538 48.0211 45.2812 47.9699 45.0224 47.9756C44.7901 47.9717 44.5579 47.9862 44.328 48.0191C44.195 48.0384 44.064 48.0696 43.9367 48.1124L43.9374 52.2385ZM35.9154 47.4781C36.6182 47.4781 37.2671 47.5921 37.86 47.8208C38.436 48.0315 38.9624 48.3559 39.407 48.7743C39.8462 49.1893 40.1926 49.6903 40.4241 50.2452C40.6684 50.8187 40.7902 51.4523 40.7902 52.1466C40.7902 52.5404 40.744 52.9294 40.6516 53.3115C40.5611 53.6885 40.4233 54.0529 40.2414 54.3962C40.065 54.7368 39.8459 55.0526 39.5848 55.3434C39.3237 55.6295 39.0248 55.8789 38.6881 56.091C38.345 56.3036 37.9731 56.4671 37.5835 56.5767C37.1789 56.6976 36.7435 56.7577 36.2766 56.7577C35.5738 56.7577 34.9228 56.6486 34.325 56.4275C33.7527 56.2161 33.2289 55.8941 32.7843 55.4803C32.346 55.0669 31.9997 54.5681 31.7672 54.0155C31.5229 53.4421 31.4011 52.8064 31.4011 52.1086C31.4011 51.3249 31.5871 50.5521 31.9443 49.8521C32.1226 49.5108 32.3432 49.1926 32.6009 48.9049C32.8614 48.6145 33.161 48.3606 33.4913 48.1504C33.8359 47.9349 34.21 47.7692 34.6022 47.6585C35.0287 47.5358 35.4711 47.475 35.9154 47.4781ZM36.2759 56.1967C36.7428 56.1967 37.1705 56.1138 37.5576 55.948C37.9447 55.7822 38.2772 55.5404 38.5551 55.2246C38.8372 54.9089 39.0563 54.524 39.2117 54.0722C39.3671 53.6148 39.4448 53.098 39.4448 52.5204C39.4448 51.8799 39.3692 51.2885 39.2173 50.7441C39.0703 50.1955 38.8491 49.7222 38.5544 49.3229C38.2675 48.9267 37.8888 48.6041 37.4498 48.3819C37.0123 48.1539 36.5006 48.0392 35.9154 48.0392C35.4485 48.0392 35.0215 48.1228 34.6337 48.2886C34.2495 48.4483 33.9065 48.691 33.6299 48.9988C33.352 49.3097 33.135 49.6925 32.9796 50.1451C32.8242 50.5983 32.7465 51.113 32.7465 51.6906C32.7465 52.3263 32.82 52.9204 32.9677 53.4732C33.1147 54.0217 33.3359 54.4964 33.6306 54.8999C33.9194 55.2977 34.2978 55.6241 34.7359 55.8533C35.1769 56.0827 35.6907 56.1967 36.2759 56.1967ZM29.9682 48.9988L29.9115 49.0237C29.5651 48.713 29.1623 48.4699 28.7243 48.3072C28.2651 48.1276 27.7604 48.0385 27.2088 48.0385C26.6789 48.0385 26.1924 48.1221 25.7507 48.2879C25.3225 48.4411 24.9327 48.6833 24.6076 48.9981C24.2821 49.3244 24.0304 49.715 23.8691 50.1444C23.6927 50.5976 23.6038 51.1123 23.6038 51.6899C23.6038 52.3256 23.6878 52.9197 23.8565 53.4725C24.0245 54.021 24.2751 54.4957 24.6076 54.8992C24.9443 55.3053 25.3695 55.6312 25.8515 55.8526C26.3527 56.0813 26.9358 56.1953 27.6008 56.1953C28.0857 56.1953 28.5653 56.0958 29.0092 55.9031C29.2325 55.8036 29.4411 55.6855 29.6343 55.5473C29.8305 55.4075 30.0105 55.247 30.1712 55.0685L30.2405 55.112L29.7358 56.3833C29.4201 56.5042 29.0708 56.5954 28.6872 56.6569C28.3079 56.7242 27.9232 56.7577 27.5378 56.7571C26.7587 56.7571 26.0454 56.6479 25.3972 56.4268C24.7532 56.2023 24.1974 55.8865 23.7305 55.4796C23.2676 55.0727 22.8975 54.5735 22.6448 54.0148C22.3879 53.4414 22.2598 52.8057 22.2598 52.1079C22.2598 51.7134 22.3102 51.3244 22.411 50.9417C22.5158 50.561 22.6684 50.1947 22.8653 49.8514C23.0651 49.5046 23.3114 49.186 23.5975 48.9042C23.8923 48.6099 24.226 48.3561 24.5894 48.1497C24.9761 47.9329 25.3901 47.7675 25.8207 47.6578C26.2964 47.5338 26.7868 47.473 27.2788 47.4768C28.0915 47.4768 28.8447 47.5991 29.5391 47.8443L29.9682 48.9988ZM15.9206 47.6281C16.447 47.6281 16.9692 47.626 17.4865 47.6219L18.9201 47.6087C19.3534 47.6004 19.7237 47.5908 20.031 47.5776C20.3383 47.5645 20.5469 47.5486 20.6561 47.5279L20.3467 48.357C20.1868 48.3147 20.0246 48.2813 19.8609 48.2568C19.6659 48.2279 19.47 48.2048 19.2736 48.1877C19.0113 48.1609 18.7477 48.1482 18.484 48.1497C18.3832 48.1497 18.2614 48.1545 18.1179 48.1628C17.9786 48.1677 17.8442 48.1732 17.7133 48.1815C17.5598 48.1899 17.4062 48.1982 17.2527 48.2064V51.6091C17.6445 51.6063 18.0361 51.5939 18.4273 51.5718C18.7766 51.551 19.0734 51.5296 19.3177 51.5096C19.604 51.484 19.8567 51.455 20.0758 51.4219L19.8798 52.3256C19.5833 52.2879 19.2865 52.2526 18.9894 52.2199C18.7058 52.1888 18.4215 52.1641 18.1368 52.1459C17.8295 52.1204 17.5348 52.1079 17.2527 52.1079V56.0157C17.749 56.0157 18.2061 55.9943 18.6233 55.9528C19.0398 55.9114 19.4038 55.8637 19.716 55.8091C20.0779 55.7511 20.4083 55.6827 20.7072 55.6039L20.5238 56.6133C20.4481 56.6078 20.3722 56.6036 20.2963 56.6009L19.9554 56.5878L19.5634 56.5753C19.429 56.5753 19.3009 56.5733 19.1784 56.5691C19.0566 56.5691 18.9467 56.5664 18.8501 56.5622H15.9199V56.538C15.9451 56.4503 15.9682 56.3425 15.9892 56.2133C16.0144 56.0841 16.0354 55.9245 16.0522 55.7338C16.069 55.5424 16.0816 55.3165 16.09 55.0546C16.0984 54.7887 16.1026 54.4791 16.1026 54.1261V50.0691C16.1026 49.7153 16.0984 49.4079 16.09 49.146C16.0816 48.88 16.069 48.652 16.0522 48.4606C16.0397 48.2978 16.0186 48.1356 15.9892 47.9749C15.9725 47.8657 15.9494 47.7575 15.9199 47.6509L15.9206 47.6281ZM7.6823 48.1628C7.67027 48.8047 7.65767 49.4466 7.6445 50.0884C7.6445 50.2839 7.6424 50.4774 7.6382 50.6688C7.6382 50.8553 7.6361 51.0356 7.6319 51.2104V51.6657C7.6319 51.9435 7.634 52.28 7.6382 52.6752L7.6508 53.8905C7.6592 54.3057 7.6697 54.7051 7.6823 55.0864C7.6949 55.4685 7.7096 55.787 7.7264 56.0406L7.9595 56.0717L8.2752 56.0959L8.5972 56.109C8.98736 56.1253 9.37822 56.1087 9.7655 56.0592C10.077 56.0178 10.3759 55.9432 10.6622 55.8347C10.9538 55.7264 11.2282 55.5775 11.477 55.3925C11.7339 55.2018 11.9572 54.9559 12.1462 54.6574C12.3401 54.3582 12.4913 53.9989 12.6012 53.5789C12.7104 53.1553 12.765 52.6565 12.765 52.0831C12.765 51.4474 12.6873 50.8823 12.5312 50.3883C12.3758 49.8894 12.1462 49.47 11.8431 49.1294C11.5398 48.7857 11.1561 48.5203 10.7252 48.3563C10.2835 48.178 9.7739 48.0889 9.1971 48.0889C9.0837 48.0889 8.9549 48.0931 8.8121 48.1013C8.6693 48.1055 8.5258 48.1117 8.383 48.12C8.25024 48.1239 8.11764 48.132 7.9854 48.1442C7.88442 48.1512 7.78339 48.1574 7.6823 48.1628ZM6.2998 47.6018C6.46418 47.6082 6.62846 47.6167 6.7926 47.6274H6.976C7.0558 47.6274 7.1888 47.6232 7.3736 47.6149C7.5633 47.606 7.7782 47.5977 8.0176 47.5894L8.76241 47.5652C9.0235 47.5562 9.2671 47.5521 9.4946 47.5521C10.105 47.5521 10.686 47.6267 11.2369 47.7766C11.7885 47.9259 12.2722 48.1704 12.6894 48.5117C13.1059 48.8517 13.4363 49.2987 13.6813 49.8514C13.9256 50.4035 14.0474 51.0826 14.0474 51.8889C14.0474 52.4665 13.9823 52.9861 13.8514 53.4469C13.7379 53.8794 13.5567 54.2917 13.3145 54.6691C13.089 55.0151 12.8076 55.3222 12.4815 55.5784C12.1559 55.8308 11.797 56.0384 11.4147 56.1953C11.0269 56.357 10.6125 56.4759 10.1708 56.5512C9.72911 56.6265 9.272 56.6631 8.8009 56.6631C8.6322 56.6631 8.4285 56.6569 8.1884 56.6451C7.95032 56.6365 7.71231 56.6259 7.4744 56.6133C7.2343 56.6009 7.0075 56.5885 6.7926 56.576C6.62843 56.5689 6.46414 56.5647 6.2998 56.5636V56.538C6.325 56.451 6.34811 56.3432 6.36911 56.214C6.39431 56.0848 6.4153 55.9252 6.4321 55.7345C6.4489 55.5438 6.4615 55.3172 6.4699 55.0553C6.4783 54.7893 6.4825 54.4798 6.4825 54.1268V50.0691C6.4825 49.716 6.4783 49.4065 6.4699 49.1405C6.4615 48.8703 6.4489 48.6396 6.4321 48.4489C6.41928 48.284 6.39826 48.1198 6.36911 47.9569C6.35275 47.8454 6.32961 47.7348 6.2998 47.626V47.6018Z" fill="#FCFCFC"/>
<path fill-rule="evenodd" clip-rule="evenodd" d="M53.0996 33.0561H62.2325L62.2332 32.7106C62.2346 31.4164 62.2309 29.8167 62.2305 29.6208L62.2304 29.6009V29.6007C62.2304 29.5892 62.2287 29.1664 62.5272 29.0157L62.719 28.9182L62.7057 27.9178C62.7428 27.6857 63.0137 26.5173 64.679 26.3301L64.9884 26.2956L65.0003 19.3457H53.5357L53.2102 19.3478L49.02 19.3457L48.9192 19.3602C48.733 19.4148 48.2388 19.5606 48.306 19.9938C48.3837 20.4857 49.0844 20.5265 49.7949 20.5265L49.9979 20.5258C50.0812 20.5337 50.1602 20.5659 50.2247 20.6184C50.0021 21.0854 50.1267 21.4177 50.3248 21.5753C50.5642 21.766 51.1837 21.8737 51.2481 21.8744C51.3225 21.9003 51.3917 21.9389 51.4525 21.9884C51.3057 22.0805 50.9538 22.1958 50.7696 22.2562L50.7665 22.2572C50.4445 22.3622 50.2569 22.4272 50.1316 22.528C49.7767 22.8161 49.5968 23.3309 49.9951 23.8304C50.0988 23.9525 50.2111 24.0672 50.3311 24.1738L50.3313 24.1739C50.5566 24.3825 50.77 24.5801 50.7882 24.808C50.8064 25.0287 50.4827 25.266 50.2219 25.4572L50.2205 25.4582L50.2201 25.4585C50.1314 25.524 50.0482 25.5854 49.979 25.6433C49.3826 26.1449 49.7389 26.7018 49.9104 26.9692C50.0294 27.155 50.3332 27.4086 50.8603 27.8404L50.8646 27.8439C51.2758 28.1812 52.0345 28.8036 52.114 29.0046C52.1441 29.1006 52.1182 29.1552 51.9495 29.3452L51.9492 29.3456C51.8345 29.4754 51.7045 29.6225 51.6618 29.8268C51.5708 30.2621 52.0048 30.5999 52.5074 30.9903C52.6397 31.091 52.7692 31.1951 52.8959 31.3026C52.9533 31.3509 53.0555 31.4884 53.0996 31.8138V33.0561ZM61.5332 32.3652H53.7989L53.7975 31.7696C53.7394 31.3143 53.5917 30.982 53.3579 30.7809C53.2284 30.6683 53.0842 30.5564 52.9421 30.4465L52.9167 30.4267C52.7085 30.2644 52.3882 30.0148 52.3485 29.9664C52.3583 29.9339 52.4304 29.8524 52.478 29.7992C52.6488 29.6064 52.9344 29.283 52.7846 28.8022C52.6747 28.447 52.1539 28.0007 51.309 27.3084L51.3082 27.3077C50.9982 27.0535 50.5733 26.7052 50.5033 26.5996C50.2996 26.2818 50.3283 26.2576 50.434 26.1684L50.434 26.1684C50.4838 26.1265 50.5427 26.083 50.606 26.0362C50.6167 26.0283 50.6275 26.0204 50.6384 26.0123C50.9961 25.7504 51.5365 25.3545 51.4868 24.7514C51.4463 24.2589 51.0953 23.9331 50.8128 23.6707L50.8113 23.6694C50.8016 23.6604 50.7919 23.6513 50.7822 23.6424C50.6945 23.561 50.6103 23.4829 50.5453 23.4013C50.4921 23.335 50.3927 23.2106 50.5698 23.0662C50.6237 23.0317 50.8337 22.9626 50.987 22.9129C51.4742 22.754 51.9782 22.5895 52.1336 22.2496C52.1773 22.1544 52.1955 22.0498 52.1863 21.9457C52.1771 21.8416 52.1409 21.7417 52.0811 21.6554C51.8977 21.3756 51.4938 21.1897 51.3209 21.1897C51.2299 21.1821 50.9373 21.1117 50.8099 21.0592C50.8217 20.9975 50.8432 20.938 50.8736 20.883C50.973 20.6902 50.9625 20.4712 50.8456 20.2826C50.7854 20.1858 50.7021 20.1036 50.6076 20.0373L64.2989 20.0366L64.2898 25.6903C62.3949 26.0441 62.0624 27.5102 62.0099 27.8674L62.0155 28.5237C61.6193 28.8353 61.5213 29.3404 61.5304 29.6112C61.5304 29.6112 61.5332 31.0621 61.5332 32.3652ZM63.4228 29.655C63.0186 29.7852 62.8891 30.1514 62.8891 30.1514C62.8891 30.1514 62.9007 34.5684 62.8891 35.1694C63.0659 35.7807 63.889 35.8374 63.889 35.8374C63.889 35.8374 64.712 35.7807 64.8889 35.1694C64.8765 34.5698 64.8889 30.1521 64.8889 30.1521C64.8889 30.1521 64.7733 29.8302 64.4258 29.6813L64.4235 28.4192C64.4235 28.4192 64.4909 27.8619 65.3458 27.8765H65.9625V34.7041L70.1933 38.0002H70.8046V21.2849L70.0754 20.9463V20.9443L66.6211 19.3457L65.9625 19.3499L65.9478 27.0401H65.1565C64.1876 27.0928 63.4414 27.6542 63.4228 28.6394V29.655ZM67.4519 34.144C67.199 34.144 66.9935 33.946 66.9935 33.7023V21.9128C66.9935 21.6691 67.199 21.4711 67.4519 21.4711C67.7048 21.4711 67.9104 21.6684 67.9104 21.9128V33.7023C67.9104 33.946 67.7048 34.144 67.4519 34.144ZM73.9409 20.2727H73.7105V37.3827H73.9409V20.2727ZM85.9686 20.3676C84.4334 19.6905 82.6717 19.3519 80.6836 19.3519L77.1726 19.3651C77.0469 19.3651 76.9376 19.4191 76.8452 19.5271C76.7529 19.6261 76.7064 19.7438 76.7064 19.8795L76.6187 37.4242C76.6177 37.5562 76.6663 37.6847 76.7568 37.7891C76.7946 37.835 76.8439 37.8725 76.9007 37.8986C76.9575 37.9247 77.0203 37.9386 77.0842 37.9393L78.9847 37.9656C79.6216 37.976 80.26 37.9795 80.8977 37.9795C82.844 37.9795 84.5676 37.6368 86.0695 36.9507C87.5713 36.2563 88.7496 35.2178 89.606 33.8373C90.4609 32.4562 90.8891 30.7323 90.8891 28.6657C90.8891 26.5541 90.4523 24.8116 89.5804 23.4401C88.7077 22.0596 87.5038 21.035 85.9686 20.3676ZM77.562 36.9237L77.6504 20.3814L80.6572 20.369C82.4786 20.369 84.0844 20.6618 85.4768 21.2489C86.8692 21.8256 87.9599 22.7242 88.7488 23.942C89.5455 25.1605 89.945 26.7355 89.945 28.6671C89.945 30.553 89.5587 32.1107 88.7868 33.3368C88.015 34.5636 86.9452 35.4761 85.5776 36.0714C84.21 36.6682 82.6376 36.9652 80.8589 36.9652C80.2965 36.9652 79.7426 36.9604 79.198 36.9514L77.562 36.9237Z" fill="#FCFCFC"/>
</svg>
