<svg width="56" height="56" viewBox="0 0 56 56" fill="none" xmlns="http://www.w3.org/2000/svg">
<path d="M55.5333 28C55.5333 43.2062 43.2062 55.5333 28 55.5333C12.7938 55.5333 0.466667 43.2062 0.466667 28C0.466667 12.7938 12.7938 0.466667 28 0.466667C43.2062 0.466667 55.5333 12.7938 55.5333 28Z" stroke="#FCFCFC" stroke-width="0.933333"/>
<path d="M9.07982 39.9883C9.07982 40.2931 9.02268 40.5483 8.90839 40.754C8.79665 40.9598 8.63538 41.1147 8.42458 41.2188C8.21379 41.3229 7.95855 41.375 7.65887 41.375H6.90077V38.655H7.73887C8.01315 38.655 8.25062 38.7058 8.45125 38.8074C8.65189 38.909 8.80681 39.0588 8.91601 39.2569C9.02522 39.4525 9.07982 39.6963 9.07982 39.9883ZM8.71792 39.9998C8.71792 39.7585 8.67728 39.5604 8.59601 39.4055C8.51728 39.2506 8.40046 39.1363 8.24554 39.0626C8.09315 38.9864 7.90776 38.9483 7.68935 38.9483H7.24363V41.0817H7.61315C7.98141 41.0817 8.25696 40.9915 8.43982 40.8112C8.62522 40.6283 8.71792 40.3579 8.71792 39.9998ZM11.7749 41.375H10.2549V38.655H11.7749V38.956H10.5978V39.8055H11.7064V40.1026H10.5978V41.074H11.7749V41.375ZM14.1089 38.9179C13.9641 38.9179 13.8333 38.9433 13.7165 38.994C13.5997 39.0423 13.5006 39.1147 13.4194 39.2112C13.3381 39.3052 13.2759 39.4207 13.2327 39.5579C13.1895 39.6925 13.1679 39.8448 13.1679 40.015C13.1679 40.2385 13.2022 40.4328 13.2708 40.5979C13.3419 40.7629 13.446 40.8899 13.5832 40.9788C13.7229 41.0677 13.8968 41.1121 14.1051 41.1121C14.2245 41.1121 14.3375 41.102 14.4441 41.0817C14.5508 41.0613 14.6549 41.036 14.7565 41.0055V41.3026C14.6549 41.3407 14.5495 41.3687 14.4403 41.3864C14.3337 41.4042 14.2054 41.4131 14.0556 41.4131C13.7787 41.4131 13.5476 41.356 13.3622 41.2417C13.1768 41.1274 13.0372 40.9648 12.9432 40.754C12.8518 40.5433 12.806 40.2956 12.806 40.0112C12.806 39.8055 12.834 39.6175 12.8899 39.4474C12.9483 39.2772 13.0321 39.1299 13.1413 39.0055C13.253 38.881 13.3902 38.7858 13.5527 38.7198C13.7152 38.6512 13.9019 38.6169 14.1127 38.6169C14.2524 38.6169 14.387 38.6309 14.5165 38.6588C14.646 38.6867 14.7616 38.7261 14.8632 38.7769L14.726 39.0664C14.6422 39.0283 14.5483 38.994 14.4441 38.9636C14.3425 38.9331 14.2308 38.9179 14.1089 38.9179ZM18.2205 40.0112C18.2205 40.222 18.1939 40.4137 18.1405 40.5864C18.0872 40.7566 18.0072 40.9039 17.9005 41.0283C17.7964 41.1528 17.6656 41.248 17.5082 41.314C17.3532 41.3801 17.1729 41.4131 16.9672 41.4131C16.7539 41.4131 16.5685 41.3801 16.411 41.314C16.2536 41.2455 16.1228 41.1502 16.0186 41.0283C15.9145 40.9039 15.837 40.7553 15.7863 40.5826C15.7355 40.4099 15.7101 40.2182 15.7101 40.0074C15.7101 39.728 15.7558 39.4842 15.8472 39.276C15.9386 39.0677 16.077 38.9052 16.2624 38.7883C16.4504 38.6715 16.6866 38.6131 16.971 38.6131C17.2428 38.6131 17.4713 38.6715 17.6567 38.7883C17.8421 38.9026 17.9818 39.0652 18.0758 39.276C18.1723 39.4842 18.2205 39.7293 18.2205 40.0112ZM16.072 40.0112C16.072 40.2398 16.1037 40.4366 16.1672 40.6017C16.2307 40.7667 16.3285 40.8937 16.4605 40.9826C16.5951 41.0715 16.764 41.116 16.9672 41.116C17.1729 41.116 17.3405 41.0715 17.4701 40.9826C17.6021 40.8937 17.6999 40.7667 17.7634 40.6017C17.8269 40.4366 17.8586 40.2398 17.8586 40.0112C17.8586 39.6683 17.7875 39.4004 17.6453 39.2074C17.5031 39.0118 17.2783 38.914 16.971 38.914C16.7653 38.914 16.5951 38.9585 16.4605 39.0474C16.3285 39.1337 16.2307 39.2594 16.1672 39.4245C16.1037 39.5871 16.072 39.7826 16.072 40.0112ZM20.1453 38.655C20.3713 38.655 20.5567 38.6842 20.7015 38.7426C20.8488 38.7985 20.958 38.8836 21.0291 38.9979C21.1002 39.1121 21.1358 39.2556 21.1358 39.4283C21.1358 39.5731 21.1091 39.6937 21.0558 39.7902C21.0024 39.8867 20.9339 39.9642 20.8501 40.0226C20.7688 40.0785 20.6824 40.1229 20.591 40.156L21.3377 41.375H20.9377L20.2786 40.2512H19.7377V41.375H19.3948V38.655H20.1453ZM20.1263 38.9521H19.7377V39.9617H20.1453C20.2926 39.9617 20.4132 39.9426 20.5072 39.9045C20.6012 39.8639 20.6697 39.8055 20.7129 39.7293C20.7586 39.6531 20.7815 39.5579 20.7815 39.4436C20.7815 39.3242 20.7574 39.229 20.7091 39.1579C20.6634 39.0867 20.5923 39.0347 20.4958 39.0017C20.3993 38.9687 20.2761 38.9521 20.1263 38.9521ZM24.0427 41.375L23.7151 40.5331H22.637L22.3132 41.375H21.9665L23.0294 38.6436H23.3379L24.397 41.375H24.0427ZM23.3075 39.4055C23.2999 39.3852 23.2872 39.3483 23.2694 39.295C23.2516 39.2417 23.2338 39.1871 23.216 39.1312C23.2008 39.0728 23.1881 39.0283 23.1779 38.9979C23.1652 39.0487 23.1513 39.1007 23.136 39.154C23.1233 39.2048 23.1094 39.2518 23.0941 39.295C23.0814 39.3382 23.07 39.375 23.0599 39.4055L22.7513 40.2283H23.6122L23.3075 39.4055ZM25.9336 41.375H25.5907V38.956H24.7412V38.655H26.7793V38.956H25.9336V41.375ZM28.5266 41.375H27.5438V41.1769L27.8638 41.1045V38.9293L27.5438 38.8531V38.655H28.5266V38.8531L28.2066 38.9293V41.1045L28.5266 41.1769V41.375ZM31.5394 38.655L30.568 41.375H30.2251L29.2537 38.655H29.6118L30.2251 40.3998C30.2531 40.4734 30.2772 40.5445 30.2975 40.6131C30.3178 40.6817 30.3356 40.7477 30.3509 40.8112C30.3686 40.8721 30.3839 40.9331 30.3966 40.994C30.4093 40.9331 30.4232 40.8709 30.4385 40.8074C30.4563 40.7439 30.4753 40.6779 30.4956 40.6093C30.5185 40.5407 30.5426 40.4683 30.568 40.3921L31.1775 38.655H31.5394ZM34.4675 41.375H34.0637L33.0999 40.076L32.8218 40.3198V41.375H32.4789V38.655H32.8218V39.996C32.8979 39.9096 32.9754 39.8233 33.0541 39.7369C33.1329 39.6506 33.2116 39.5642 33.2903 39.4779L34.0256 38.655H34.4256L33.3475 39.8398L34.4675 41.375ZM37.1156 41.375L36.788 40.5331H35.7099L35.3861 41.375H35.0394L36.1023 38.6436H36.4109L37.4699 41.375H37.1156ZM36.3804 39.4055C36.3728 39.3852 36.3601 39.3483 36.3423 39.295C36.3245 39.2417 36.3067 39.1871 36.289 39.1312C36.2737 39.0728 36.261 39.0283 36.2509 38.9979C36.2382 39.0487 36.2242 39.1007 36.209 39.154C36.1963 39.2048 36.1823 39.2518 36.1671 39.295C36.1544 39.3382 36.1429 39.375 36.1328 39.4055L35.8242 40.2283H36.6852L36.3804 39.4055ZM39.7429 41.9617H38.0363V41.7179H39.7429V41.9617ZM42.7461 40.415C42.7461 40.6029 42.708 40.7731 42.6318 40.9255C42.5557 41.0753 42.4388 41.1947 42.2814 41.2836C42.1264 41.3699 41.9284 41.4131 41.6871 41.4131C41.3493 41.4131 41.0915 41.3217 40.9138 41.1388C40.7385 40.9534 40.6509 40.7096 40.6509 40.4074V38.655H40.9938V40.4188C40.9938 40.6398 41.0522 40.8112 41.169 40.9331C41.2884 41.055 41.4674 41.116 41.7061 41.116C41.8712 41.116 42.0045 41.0867 42.1061 41.0283C42.2103 40.9674 42.2864 40.8848 42.3347 40.7807C42.383 40.674 42.4071 40.5521 42.4071 40.415V38.655H42.7461V40.415ZM46.024 41.375H45.6202L44.6564 40.076L44.3783 40.3198V41.375H44.0354V38.655H44.3783V39.996C44.4545 39.9096 44.532 39.8233 44.6107 39.7369C44.6894 39.6506 44.7681 39.5642 44.8469 39.4779L45.5821 38.655H45.9821L44.904 39.8398L46.024 41.375ZM47.716 38.655C47.942 38.655 48.1274 38.6842 48.2722 38.7426C48.4195 38.7985 48.5287 38.8836 48.5998 38.9979C48.6709 39.1121 48.7065 39.2556 48.7065 39.4283C48.7065 39.5731 48.6798 39.6937 48.6265 39.7902C48.5731 39.8867 48.5046 39.9642 48.4207 40.0226C48.3395 40.0785 48.2531 40.1229 48.1617 40.156L48.9084 41.375H48.5084L47.8493 40.2512H47.3084V41.375H46.9655V38.655H47.716ZM47.6969 38.9521H47.3084V39.9617H47.716C47.8633 39.9617 47.9839 39.9426 48.0779 39.9045C48.1719 39.8639 48.2404 39.8055 48.2836 39.7293C48.3293 39.6531 48.3522 39.5579 48.3522 39.4436C48.3522 39.3242 48.328 39.229 48.2798 39.1579C48.2341 39.0867 48.163 39.0347 48.0665 39.0017C47.97 38.9687 47.8468 38.9521 47.6969 38.9521Z" fill="#FCFCFC"/>
<path d="M20.5312 14.6959C25.5471 13.934 35.5789 14.734 35.5789 24.0292C35.5789 33.3245 25.5471 34.3784 20.5312 33.7435" stroke="#FCFCFC" stroke-width="0.933333"/>
<path d="M21.8652 14.5059V33.8575" stroke="#FCFCFC" stroke-width="0.933333"/>
<path d="M24.7227 14.5059V33.8575" stroke="#FCFCFC" stroke-width="0.933333"/>
</svg>
