<svg width="200" height="52" viewBox="0 0 200 52" fill="none" xmlns="http://www.w3.org/2000/svg">
<path fill-rule="evenodd" clip-rule="evenodd" d="M15.885 32.5092H29.2716L29.2726 31.9962C29.2745 30.0742 29.2692 27.6985 29.2686 27.4076L29.2685 27.378V27.3777C29.2684 27.3606 29.2659 26.7329 29.7035 26.509L29.9847 26.3643L29.9652 24.8786C30.0195 24.5339 30.4166 22.7989 32.8575 22.5208L33.311 22.4695L33.3285 12.1487H16.5242L16.0471 12.1518L9.9053 12.1487L9.75755 12.1702C9.48462 12.2513 8.76025 12.4678 8.85875 13.1111C8.97264 13.8416 9.99969 13.9022 11.0411 13.9022L11.3387 13.9011C11.4607 13.9128 11.5764 13.9607 11.6711 14.0386C11.3448 14.7322 11.5274 15.2257 11.8178 15.4597C12.1687 15.7429 13.0767 15.9029 13.1711 15.9039C13.2801 15.9424 13.3815 15.9997 13.4707 16.0732C13.2554 16.21 12.7397 16.3812 12.4697 16.4709L12.4652 16.4724C11.9933 16.6283 11.7183 16.7248 11.5346 16.8746C11.0144 17.3024 10.7507 18.0668 11.3346 18.8086C11.4866 18.9899 11.6511 19.1603 11.827 19.3186L11.8272 19.3187C12.1575 19.6285 12.4704 19.9219 12.497 20.2605C12.5237 20.5882 12.0492 20.9405 11.6669 21.2245L11.6649 21.2259L11.6643 21.2264C11.5342 21.3237 11.4124 21.4149 11.311 21.5009C10.4368 22.2458 10.959 23.0728 11.2104 23.4699C11.3848 23.7459 11.8301 24.1224 12.6027 24.7637L12.6089 24.7688C13.2116 25.2697 14.3238 26.194 14.4403 26.4925C14.4845 26.6352 14.4465 26.7162 14.1992 26.9984L14.1987 26.9989C14.0306 27.1917 13.84 27.4101 13.7775 27.7135C13.6441 28.3599 14.2803 28.8616 15.017 29.4414C15.2108 29.5909 15.4007 29.7456 15.5864 29.9051C15.6705 29.9769 15.8203 30.1811 15.885 30.6644V32.5092ZM28.2466 31.4831H16.91L16.9079 30.5987C16.8228 29.9226 16.6063 29.429 16.2636 29.1305C16.0738 28.9632 15.8624 28.797 15.6541 28.6339L15.617 28.6045C15.3117 28.3635 14.8422 27.9927 14.7841 27.9208C14.7984 27.8726 14.9041 27.7515 14.9739 27.6725C15.2242 27.3862 15.6428 26.906 15.4233 26.1919C15.2622 25.6645 14.4988 25.0017 13.2604 23.9737L13.2591 23.9726C12.8047 23.5951 12.182 23.0778 12.0794 22.9209C11.7809 22.449 11.8229 22.4131 11.9779 22.2807L11.9779 22.2807C12.0507 22.2184 12.1371 22.1538 12.2299 22.0844C12.2456 22.0727 12.2615 22.0608 12.2775 22.0488C12.8018 21.66 13.5939 21.072 13.521 20.1763C13.4616 19.445 12.9472 18.9611 12.533 18.5715L12.5309 18.5696C12.5166 18.5561 12.5024 18.5427 12.4882 18.5294C12.3597 18.4086 12.2362 18.2925 12.141 18.1715C12.063 18.073 11.9173 17.8883 12.1769 17.6738C12.2559 17.6225 12.5637 17.5199 12.7884 17.4461C13.5025 17.2101 14.2413 16.9659 14.4691 16.4611C14.5331 16.3198 14.5597 16.1644 14.5462 16.0098C14.5327 15.8552 14.4797 15.7068 14.3921 15.5787C14.1233 15.1632 13.5313 14.8872 13.2778 14.8872C13.1445 14.8759 12.7156 14.7712 12.5289 14.6932C12.546 14.6017 12.5775 14.5134 12.6222 14.4316C12.7679 14.1453 12.7525 13.8201 12.5812 13.54C12.4929 13.3963 12.3708 13.2742 12.2323 13.1757L32.3004 13.1747L32.2871 21.5707C29.5096 22.096 29.0222 24.2733 28.9453 24.8037L28.9535 25.7784C28.3728 26.2412 28.2291 26.9912 28.2425 27.3934C28.2425 27.3934 28.2466 29.5481 28.2466 31.4831ZM31.0162 27.4585C30.4238 27.6518 30.2339 28.1956 30.2339 28.1956C30.2339 28.1956 30.2509 34.755 30.2339 35.6475C30.4931 36.5553 31.6995 36.6396 31.6995 36.6396C31.6995 36.6396 32.9059 36.5553 33.1651 35.6475C33.147 34.7571 33.1651 28.1967 33.1651 28.1967C33.1651 28.1967 32.9957 27.7186 32.4863 27.4975L32.4829 25.6233C32.4829 25.6233 32.5818 24.7956 33.8349 24.8172H34.7388V34.9566L40.9402 39.8514H41.8361V15.0285L40.7673 14.5257V14.5226L35.7041 12.1487L34.7388 12.1549L34.7172 23.5752H33.5574C32.1373 23.6534 31.0435 24.4872 31.0162 25.9502V27.4585ZM36.9219 34.1248C36.5512 34.1248 36.2499 33.8308 36.2499 33.4689V15.961C36.2499 15.5991 36.5512 15.305 36.9219 15.305C37.2926 15.305 37.5939 15.598 37.5939 15.961V33.4689C37.5939 33.8308 37.2926 34.1248 36.9219 34.1248ZM46.4332 13.5254H46.0955V38.9344H46.4332V13.5254ZM64.0628 13.6662C61.8126 12.6607 59.2304 12.158 56.3162 12.158L51.17 12.1775C50.9858 12.1775 50.8255 12.2577 50.6902 12.4181C50.5549 12.5651 50.4867 12.7399 50.4867 12.9414L50.3582 38.996C50.3566 39.1921 50.4279 39.3829 50.5606 39.5379C50.616 39.6061 50.6882 39.6618 50.7715 39.7005C50.8547 39.7392 50.9468 39.7599 51.0404 39.761L53.8261 39.8C54.7596 39.8155 55.6954 39.8206 56.63 39.8206C59.4829 39.8206 62.0093 39.3117 64.2106 38.2928C66.4119 37.2616 68.1391 35.7194 69.3943 33.6693C70.6474 31.6182 71.275 29.0582 71.275 25.9893C71.275 22.8535 70.6348 20.2657 69.3568 18.229C68.0777 16.1789 66.313 14.6573 64.0628 13.6662ZM51.7408 38.2527L51.8704 13.6868L56.2776 13.6683C58.9473 13.6683 61.301 14.1032 63.3419 14.975C65.3829 15.8314 66.9816 17.1659 68.1379 18.9744C69.3057 20.7839 69.8912 23.1229 69.8912 25.9913C69.8912 28.7919 69.325 31.1052 68.1936 32.926C67.0623 34.7479 65.4943 36.1029 63.4897 36.9871C61.4852 37.8733 59.1804 38.3144 56.5732 38.3144C55.7488 38.3144 54.937 38.3072 54.1388 38.2938L51.7408 38.2527Z" fill="#FCFCFC"/>
<path d="M187.329 25.6653V25.6334C187.339 25.6069 187.347 25.567 187.353 25.5138C187.358 25.4607 187.361 25.4128 187.361 25.3703C187.361 25.2055 187.337 25.0247 187.289 24.828C187.246 24.626 187.161 24.3761 187.034 24.0784L186.069 21.9093C185.771 21.8987 185.375 21.8933 184.881 21.8933C184.386 21.8933 183.852 21.8933 183.278 21.8933C182.858 21.8933 182.451 21.8933 182.058 21.8933C181.67 21.8933 181.319 21.8987 181.005 21.9093L180.088 24.0146C180.008 24.2113 179.923 24.4266 179.833 24.6605C179.742 24.8945 179.697 25.131 179.697 25.3703C179.697 25.4394 179.702 25.4979 179.713 25.5457C179.724 25.5882 179.734 25.6175 179.745 25.6334V25.6653H178.118V25.6334C178.214 25.5324 178.333 25.3543 178.477 25.0991C178.621 24.8386 178.777 24.5143 178.948 24.1262L183.517 13.9905H184.155L188.485 23.7355C188.586 23.9641 188.69 24.1874 188.796 24.4053C188.908 24.618 189.012 24.8094 189.107 24.9795C189.203 25.1496 189.288 25.2932 189.362 25.4101C189.437 25.5271 189.487 25.6015 189.514 25.6334V25.6653H187.329ZM182.161 21.2075C182.47 21.2075 182.786 21.2075 183.11 21.2075C183.435 21.2022 183.751 21.1995 184.059 21.1995C184.373 21.1942 184.673 21.1916 184.96 21.1916C185.247 21.1863 185.508 21.1809 185.742 21.1756L183.501 16.1117L181.3 21.2075H182.161Z" fill="#FCFCFC"/>
<path d="M168.859 25.6335C168.891 25.5218 168.921 25.3836 168.947 25.2188C168.979 25.054 169.006 24.8493 169.027 24.6047C169.048 24.3602 169.064 24.0704 169.075 23.7355C169.085 23.3952 169.091 22.9992 169.091 22.5473V17.3558C169.091 16.9039 169.085 16.5105 169.075 16.1755C169.064 15.8353 169.048 15.5429 169.027 15.2983C169.006 15.0485 168.979 14.8411 168.947 14.6763C168.921 14.5115 168.891 14.3733 168.859 14.2616V14.2297H170.773V14.2616C170.741 14.3733 170.709 14.5115 170.678 14.6763C170.651 14.8411 170.627 15.0485 170.606 15.2983C170.59 15.5429 170.574 15.8353 170.558 16.1755C170.547 16.5105 170.542 16.9039 170.542 17.3558V19.1341L175.199 15.3302C175.72 14.9049 175.981 14.5381 175.981 14.2297H178.222V14.2616C177.908 14.3361 177.589 14.4796 177.265 14.6923C176.946 14.8996 176.605 15.1548 176.244 15.4578L172.129 18.9029L177.081 24.3416C177.289 24.5542 177.464 24.7323 177.608 24.8759C177.756 25.0141 177.887 25.1311 177.998 25.2267C178.11 25.3171 178.211 25.3942 178.301 25.458C178.397 25.5165 178.495 25.575 178.596 25.6335V25.6654H176.26C176.239 25.6175 176.201 25.5564 176.148 25.4819C176.1 25.4075 176.042 25.3304 175.973 25.2507C175.909 25.1709 175.837 25.0885 175.757 25.0035C175.683 24.9184 175.611 24.8386 175.542 24.7642L170.542 19.2777V22.5473C170.542 22.9992 170.547 23.3952 170.558 23.7355C170.574 24.0704 170.59 24.3602 170.606 24.6047C170.627 24.8493 170.651 25.054 170.678 25.2188C170.709 25.3836 170.741 25.5218 170.773 25.6335V25.6654H168.859V25.6335Z" fill="#FCFCFC"/>
<path d="M158.827 14.2297V14.2616C158.816 14.2882 158.808 14.3281 158.803 14.3813C158.797 14.4344 158.795 14.4823 158.795 14.5248C158.795 14.6896 158.816 14.873 158.859 15.075C158.906 15.2718 158.994 15.519 159.122 15.8167L162.654 23.7833L166.068 15.8805C166.147 15.6838 166.232 15.4685 166.323 15.2345C166.413 15.0006 166.458 14.764 166.458 14.5248C166.458 14.461 166.453 14.4078 166.442 14.3653C166.432 14.3175 166.421 14.2829 166.411 14.2616V14.2297H168.045V14.2616C167.944 14.3626 167.822 14.5434 167.678 14.8039C167.535 15.0644 167.378 15.3861 167.208 15.7688L162.639 25.9126H162.001L157.67 16.1596C157.569 15.931 157.463 15.7104 157.351 15.4977C157.245 15.285 157.144 15.0937 157.048 14.9235C156.953 14.7481 156.868 14.6019 156.793 14.4849C156.719 14.368 156.668 14.2935 156.642 14.2616V14.2297H158.827Z" fill="#FCFCFC"/>
<path d="M153.843 25.6335C153.875 25.5218 153.904 25.3836 153.93 25.2188C153.957 25.054 153.981 24.8493 154.002 24.6047C154.024 24.3602 154.039 24.0704 154.05 23.7355C154.061 23.3952 154.066 22.9992 154.066 22.5473V17.3558C154.066 16.9039 154.061 16.5105 154.05 16.1755C154.039 15.8353 154.024 15.5429 154.002 15.2983C153.981 15.0485 153.957 14.8411 153.93 14.6763C153.904 14.5115 153.875 14.3733 153.843 14.2616V14.2297H155.749V14.2616C155.717 14.3733 155.685 14.5115 155.653 14.6763C155.626 14.8411 155.603 15.0485 155.581 15.2983C155.565 15.5429 155.549 15.8353 155.533 16.1755C155.523 16.5105 155.517 16.9039 155.517 17.3558V22.5473C155.517 22.9992 155.523 23.3952 155.533 23.7355C155.549 24.0704 155.565 24.3602 155.581 24.6047C155.603 24.8493 155.626 25.054 155.653 25.2188C155.685 25.3836 155.717 25.5218 155.749 25.6335V25.6654H153.843V25.6335Z" fill="#FCFCFC"/>
<path d="M147.017 14.9313C146.39 14.9313 145.823 14.9606 145.318 15.0191C144.813 15.0722 144.377 15.1307 144.01 15.1945C143.585 15.2742 143.205 15.362 142.87 15.4577L143.101 14.1658C143.165 14.1711 143.261 14.1764 143.388 14.1817C143.516 14.187 143.657 14.1924 143.811 14.1977C143.971 14.203 144.135 14.2083 144.306 14.2136C144.481 14.2136 144.646 14.2163 144.8 14.2216C144.954 14.2216 145.09 14.2243 145.207 14.2296C145.329 14.2296 145.417 14.2296 145.47 14.2296H150.023C150.077 14.2296 150.162 14.2296 150.279 14.2296C150.401 14.2243 150.539 14.2216 150.693 14.2216C150.847 14.2163 151.01 14.2136 151.18 14.2136C151.355 14.2083 151.52 14.203 151.674 14.1977C151.834 14.1924 151.977 14.187 152.105 14.1817C152.232 14.1764 152.328 14.1711 152.392 14.1658L152.623 15.4577C152.283 15.362 151.9 15.2742 151.475 15.1945C151.108 15.1307 150.672 15.0722 150.167 15.0191C149.662 14.9606 149.096 14.9313 148.468 14.9313V22.5471C148.468 22.999 148.474 23.3951 148.484 23.7353C148.5 24.0703 148.516 24.36 148.532 24.6046C148.553 24.8491 148.577 25.0538 148.604 25.2186C148.636 25.3834 148.668 25.5216 148.7 25.6333V25.6652H146.794V25.6333C146.826 25.5216 146.855 25.3834 146.881 25.2186C146.908 25.0538 146.932 24.8491 146.953 24.6046C146.974 24.36 146.99 24.0703 147.001 23.7353C147.012 23.3951 147.017 22.999 147.017 22.5471V14.9313Z" fill="#FCFCFC"/>
<path d="M141.65 25.6653V25.6334C141.661 25.6069 141.669 25.567 141.674 25.5138C141.679 25.4607 141.682 25.4128 141.682 25.3703C141.682 25.2055 141.658 25.0247 141.61 24.828C141.568 24.626 141.483 24.3761 141.355 24.0784L140.39 21.9093C140.092 21.8987 139.696 21.8933 139.202 21.8933C138.708 21.8933 138.173 21.8933 137.599 21.8933C137.179 21.8933 136.772 21.8933 136.379 21.8933C135.991 21.8933 135.64 21.8987 135.326 21.9093L134.409 24.0146C134.329 24.2113 134.244 24.4266 134.154 24.6605C134.064 24.8945 134.018 25.131 134.018 25.3703C134.018 25.4394 134.024 25.4979 134.034 25.5457C134.045 25.5882 134.056 25.6175 134.066 25.6334V25.6653H132.439V25.6334C132.535 25.5324 132.655 25.3543 132.798 25.0991C132.942 24.8386 133.099 24.5143 133.269 24.1262L137.838 13.9905H138.476L142.806 23.7355C142.907 23.9641 143.011 24.1874 143.117 24.4053C143.229 24.618 143.333 24.8094 143.428 24.9795C143.524 25.1496 143.609 25.2932 143.684 25.4101C143.758 25.5271 143.809 25.6015 143.835 25.6334V25.6653H141.65ZM136.483 21.2075C136.791 21.2075 137.107 21.2075 137.432 21.2075C137.756 21.2022 138.072 21.1995 138.381 21.1995C138.694 21.1942 138.995 21.1916 139.282 21.1916C139.569 21.1863 139.829 21.1809 140.063 21.1756L137.822 16.1117L135.621 21.2075H136.483Z" fill="#FCFCFC"/>
<path d="M125.772 22.547C125.772 22.9989 125.778 23.395 125.788 23.7352C125.804 24.0702 125.82 24.3599 125.836 24.6045C125.858 24.849 125.881 25.0537 125.908 25.2185C125.94 25.3833 125.972 25.5216 126.004 25.6332V25.6651H124.09V25.6332C124.122 25.5216 124.151 25.3833 124.178 25.2185C124.209 25.0537 124.233 24.849 124.249 24.6045C124.271 24.3599 124.287 24.0702 124.297 23.7352C124.313 23.4003 124.321 23.0042 124.321 22.547V17.3555C124.321 16.9036 124.313 16.5102 124.297 16.1753C124.287 15.835 124.271 15.5426 124.249 15.2981C124.233 15.0535 124.209 14.8488 124.178 14.684C124.151 14.5139 124.122 14.373 124.09 14.2614V14.2295L124.425 14.2614C124.526 14.272 124.637 14.28 124.76 14.2853C124.887 14.2853 125.018 14.2853 125.15 14.2853C125.358 14.2853 125.637 14.2614 125.988 14.2135C126.344 14.1604 126.796 14.1338 127.343 14.1338C127.854 14.1338 128.324 14.2029 128.755 14.3411C129.191 14.4794 129.568 14.6814 129.887 14.9472C130.206 15.213 130.454 15.54 130.629 15.9281C130.81 16.3109 130.9 16.7468 130.9 17.2359C130.9 17.6187 130.85 17.9749 130.749 18.3045C130.653 18.6288 130.515 18.9239 130.334 19.1897C130.159 19.4555 129.946 19.6921 129.696 19.8994C129.446 20.1015 129.167 20.2716 128.859 20.4098L131.658 24.3413C131.796 24.538 131.924 24.7081 132.041 24.8517C132.163 24.9952 132.277 25.1202 132.383 25.2265C132.495 25.3275 132.601 25.4126 132.702 25.4817C132.803 25.5455 132.907 25.596 133.013 25.6332V25.6651H130.709C130.693 25.5641 130.64 25.4312 130.549 25.2664C130.464 25.0962 130.363 24.9288 130.246 24.764L127.423 20.7846C127.301 20.7953 127.179 20.8059 127.056 20.8165C126.934 20.8218 126.809 20.8245 126.682 20.8245C126.533 20.8245 126.381 20.8192 126.227 20.8086C126.078 20.7979 125.927 20.7793 125.772 20.7527V22.547ZM125.772 20.1307C125.916 20.1626 126.062 20.1865 126.211 20.2025C126.36 20.2131 126.503 20.2184 126.642 20.2184C127.04 20.2184 127.405 20.16 127.734 20.043C128.064 19.9207 128.343 19.7373 128.572 19.4927C128.806 19.2482 128.986 18.9451 129.114 18.5836C129.241 18.2168 129.305 17.7888 129.305 17.2997C129.305 16.901 129.26 16.5395 129.17 16.2152C129.079 15.8909 128.944 15.6171 128.763 15.3938C128.588 15.1652 128.364 14.9897 128.093 14.8675C127.822 14.7399 127.506 14.6761 127.144 14.6761C126.777 14.6761 126.485 14.6947 126.267 14.7319C126.049 14.7691 125.884 14.809 125.772 14.8515V20.1307Z" fill="#FCFCFC"/>
<path d="M116.131 14.0383C117.018 14.0383 117.837 14.1845 118.587 14.4769C119.342 14.764 119.993 15.1707 120.541 15.6971C121.088 16.2181 121.516 16.8454 121.824 17.5791C122.133 18.3127 122.287 19.1235 122.287 20.0113C122.287 20.5164 122.229 21.0135 122.112 21.5026C121.995 21.9917 121.822 22.4542 121.593 22.8902C121.37 23.3261 121.093 23.7302 120.764 24.1023C120.434 24.4691 120.057 24.7881 119.631 25.0593C119.211 25.3251 118.746 25.5324 118.236 25.6813C117.725 25.8355 117.175 25.9126 116.585 25.9126C115.697 25.9126 114.876 25.7717 114.121 25.4899C113.371 25.2028 112.723 24.7988 112.175 24.2778C111.628 23.7567 111.2 23.1321 110.891 22.4037C110.583 21.67 110.429 20.8566 110.429 19.9635C110.429 19.4584 110.487 18.9613 110.604 18.4722C110.721 17.9831 110.891 17.5179 111.115 17.0767C111.343 16.6354 111.62 16.2314 111.944 15.8645C112.274 15.4924 112.648 15.1707 113.068 14.8996C113.494 14.6285 113.961 14.4185 114.472 14.2696C114.988 14.1154 115.54 14.0383 116.131 14.0383ZM116.585 25.1948C117.175 25.1948 117.715 25.0885 118.204 24.8758C118.693 24.6632 119.113 24.3548 119.464 23.9508C119.82 23.5467 120.097 23.055 120.293 22.4755C120.49 21.8907 120.588 21.2288 120.588 20.4898C120.588 19.6711 120.493 18.9135 120.301 18.217C120.115 17.5153 119.836 16.9092 119.464 16.3988C119.092 15.8831 118.627 15.4817 118.068 15.1947C117.515 14.9022 116.87 14.756 116.131 14.756C115.54 14.756 115.001 14.8624 114.512 15.075C114.023 15.2824 113.6 15.5854 113.244 15.9841C112.893 16.3829 112.619 16.872 112.422 17.4515C112.226 18.031 112.127 18.6902 112.127 19.4292C112.127 20.2426 112.22 21.0028 112.406 21.7099C112.592 22.4117 112.872 23.0204 113.244 23.5361C113.616 24.0518 114.081 24.4585 114.639 24.7562C115.198 25.0486 115.846 25.1948 116.585 25.1948Z" fill="#FCFCFC"/>
<path d="M109.113 15.9841L109.041 16.016C108.627 15.6333 108.127 15.3276 107.542 15.099C106.963 14.8703 106.325 14.756 105.628 14.756C104.958 14.756 104.344 14.8624 103.786 15.075C103.228 15.2824 102.747 15.5854 102.343 15.9841C101.944 16.3829 101.633 16.872 101.41 17.4515C101.186 18.031 101.075 18.6902 101.075 19.4292C101.075 20.2426 101.181 21.0028 101.394 21.7099C101.606 22.4117 101.923 23.0204 102.343 23.5361C102.763 24.0518 103.286 24.4585 103.914 24.7562C104.546 25.0486 105.283 25.1948 106.123 25.1948C106.426 25.1948 106.729 25.1629 107.032 25.0991C107.335 25.0353 107.624 24.9423 107.901 24.82C108.183 24.6924 108.446 24.5409 108.69 24.3655C108.94 24.1847 109.166 23.98 109.368 23.7514L109.456 23.8073L108.818 25.4341C108.419 25.5883 107.978 25.7052 107.494 25.785C107.016 25.87 106.532 25.9126 106.043 25.9126C105.059 25.9126 104.158 25.7717 103.339 25.4899C102.526 25.2028 101.824 24.7988 101.234 24.2778C100.649 23.7567 100.192 23.1321 99.8624 22.4037C99.5381 21.67 99.376 20.8566 99.376 19.9635C99.376 19.4584 99.4398 18.9613 99.5674 18.4722C99.7003 17.9831 99.8917 17.5179 100.142 17.0767C100.391 16.6354 100.7 16.2314 101.067 15.8645C101.433 15.4924 101.851 15.1707 102.319 14.8996C102.792 14.6285 103.31 14.4185 103.874 14.2696C104.443 14.1154 105.057 14.0383 105.716 14.0383C106.742 14.0383 107.694 14.1952 108.571 14.5088L109.113 15.9841Z" fill="#FCFCFC"/>
<path d="M91.8564 14.2294C92.521 14.2294 93.1802 14.2267 93.8342 14.2214C94.4934 14.2161 95.0968 14.2108 95.6444 14.2055C96.192 14.1948 96.6598 14.1816 97.0479 14.1656C97.436 14.1497 97.6992 14.1284 97.8374 14.1018L97.4467 15.1624C97.2712 15.1146 97.0665 15.0721 96.8326 15.0348C96.6306 15.0029 96.3834 14.9737 96.091 14.9471C95.8039 14.9152 95.4716 14.8993 95.0941 14.8993C94.9666 14.8993 94.8124 14.9046 94.6316 14.9152C94.4562 14.9205 94.286 14.9285 94.1212 14.9391C93.9298 14.9498 93.7358 14.9604 93.5391 14.971V19.3252C94.0867 19.3199 94.5811 19.3039 95.0224 19.2773C95.4636 19.2508 95.8384 19.2242 96.1468 19.1976C96.5083 19.1657 96.8273 19.1285 97.1038 19.0859L96.8565 20.2423C96.4897 20.1944 96.1149 20.1492 95.7321 20.1067C95.4025 20.0695 95.0436 20.0376 94.6555 20.011C94.2674 19.9791 93.8953 19.9632 93.5391 19.9632V24.9633C94.1664 24.9633 94.7433 24.9367 95.2696 24.8835C95.7959 24.8303 96.2558 24.7692 96.6492 24.7001C97.1064 24.6257 97.5237 24.5379 97.9012 24.4369L97.6699 25.7288C97.6062 25.7235 97.5105 25.7182 97.3829 25.7129C97.2553 25.7075 97.1117 25.7022 96.9522 25.6969C96.7981 25.6916 96.6332 25.6863 96.4578 25.681C96.2877 25.681 96.1255 25.6783 95.9714 25.673C95.8172 25.673 95.679 25.6703 95.5567 25.665C95.4397 25.665 95.3546 25.665 95.3015 25.665H91.8564V25.6331C91.8883 25.5215 91.9176 25.3832 91.9442 25.2184C91.9761 25.0536 92.0026 24.8489 92.0239 24.6044C92.0452 24.3598 92.0611 24.0701 92.0718 23.7352C92.0824 23.3949 92.0877 22.9988 92.0877 22.5469V17.3555C92.0877 16.9036 92.0824 16.5101 92.0718 16.1752C92.0611 15.835 92.0452 15.5426 92.0239 15.298C92.0026 15.0481 91.9761 14.8408 91.9442 14.676C91.9176 14.5112 91.8883 14.3729 91.8564 14.2613V14.2294Z" fill="#FCFCFC"/>
<path d="M81.9437 14.9153C81.9331 15.5107 81.9224 16.0876 81.9118 16.6458C81.9065 16.885 81.9012 17.1296 81.8959 17.3795C81.8959 17.6293 81.8932 17.8765 81.8879 18.1211C81.8879 18.3603 81.8852 18.5916 81.8799 18.8149C81.8799 19.0329 81.8799 19.2269 81.8799 19.397C81.8799 19.7532 81.8826 20.1839 81.8879 20.6889C81.8932 21.194 81.8985 21.7123 81.9038 22.244C81.9145 22.7756 81.9278 23.286 81.9437 23.7751C81.9597 24.2642 81.9783 24.6709 81.9995 24.9952C82.074 25.0059 82.1723 25.0192 82.2946 25.0351C82.4222 25.0457 82.5551 25.0564 82.6933 25.067C82.8316 25.0723 82.9671 25.0776 83.1 25.083C83.2329 25.0883 83.3446 25.0909 83.435 25.0909C83.8071 25.0909 84.1872 25.067 84.5753 25.0192C84.9688 24.966 85.3462 24.8703 85.7077 24.7321C86.0746 24.5938 86.4175 24.4051 86.7365 24.1659C87.0608 23.9213 87.3425 23.6076 87.5818 23.2249C87.8263 22.8421 88.0177 22.3822 88.1559 21.8453C88.2942 21.303 88.3633 20.665 88.3633 19.9313C88.3633 19.1179 88.2649 18.3949 88.0682 17.7622C87.8715 17.1243 87.5818 16.5873 87.199 16.1514C86.8215 15.7154 86.351 15.3858 85.7875 15.1625C85.2293 14.9339 84.586 14.8196 83.8576 14.8196C83.7141 14.8196 83.5519 14.8249 83.3712 14.8356C83.1904 14.8409 83.0097 14.8488 82.8289 14.8595C82.6535 14.8648 82.486 14.8754 82.3265 14.8914C82.1723 14.902 82.0447 14.91 81.9437 14.9153ZM80.1973 14.1976C80.3195 14.2029 80.4338 14.2082 80.5402 14.2135C80.6306 14.2189 80.7236 14.2242 80.8193 14.2295C80.915 14.2295 80.9921 14.2295 81.0506 14.2295C81.1516 14.2295 81.319 14.2242 81.553 14.2135C81.7922 14.2029 82.0633 14.1923 82.3664 14.1816C82.6694 14.171 82.9831 14.1604 83.3074 14.1497C83.637 14.1391 83.9453 14.1338 84.2324 14.1338C85.0033 14.1338 85.737 14.2295 86.4334 14.4209C87.1299 14.6123 87.7413 14.9259 88.2676 15.3619C88.7939 15.7978 89.2113 16.3693 89.5196 17.0764C89.828 17.7835 89.9821 18.6527 89.9821 19.6841C89.9821 20.4231 89.8997 21.0877 89.7349 21.6778C89.5754 22.2679 89.3495 22.7889 89.0571 23.2408C88.7647 23.6927 88.4138 24.0808 88.0044 24.4051C87.6004 24.7241 87.1511 24.9873 86.6567 25.1946C86.1676 25.4019 85.6439 25.5535 85.0857 25.6492C84.5275 25.7448 83.9507 25.7927 83.3552 25.7927C83.1426 25.7927 82.8847 25.7847 82.5817 25.7688C82.284 25.7581 81.9836 25.7448 81.6805 25.7289C81.3775 25.7129 81.0904 25.697 80.8193 25.6811C80.5535 25.6704 80.3461 25.6651 80.1973 25.6651V25.6332C80.2292 25.5216 80.2584 25.3833 80.285 25.2185C80.3169 25.0537 80.3435 24.849 80.3647 24.6045C80.386 24.3599 80.4019 24.0702 80.4126 23.7352C80.4232 23.395 80.4285 22.9989 80.4285 22.547V17.3555C80.4285 16.9036 80.4232 16.5076 80.4126 16.1673C80.4019 15.8218 80.386 15.5267 80.3647 15.2821C80.3435 15.0323 80.3169 14.8223 80.285 14.6521C80.2584 14.482 80.2292 14.3411 80.1973 14.2295V14.1976Z" fill="#FCFCFC"/>
<path d="M98.4404 31.2224H99.4214L101.728 36.8564H101.808L104.114 31.2224H105.095V38.0098H104.326V32.853H104.26L102.139 38.0098H101.397L99.2756 32.853H99.2093V38.0098H98.4404V31.2224Z" fill="#FCFCFC"/>
<path d="M92.4125 38.0098H91.5508L94.043 31.2224H94.8914L97.3837 38.0098H96.522L94.4937 32.2962H94.4407L92.4125 38.0098ZM92.7306 35.3584H96.2038V36.0876H92.7306V35.3584Z" fill="#FCFCFC"/>
<path d="M86.5566 38.0098V31.2224H90.6529V31.9515H87.3785V34.2449H90.4408V34.974H87.3785V37.2806H90.7059V38.0098H86.5566Z" fill="#FCFCFC"/>
<path d="M80.1973 31.9515V31.2224H85.2878V31.9515H83.1535V38.0098H82.3316V31.9515H80.1973Z" fill="#FCFCFC"/>
<line x1="80.125" y1="28.4796" x2="189.86" y2="28.4795" stroke="#FCFCFC" stroke-width="0.349972"/>
</svg>
