<svg width="59" height="28" viewBox="0 0 59 28" fill="none" xmlns="http://www.w3.org/2000/svg">
<path fill-rule="evenodd" clip-rule="evenodd" d="M21.155 15.3716C20.5982 15.5533 20.4197 16.0646 20.4197 16.0646C20.4197 16.0646 20.4357 22.2304 20.4197 23.0693C20.6634 23.9227 21.7974 24.0019 21.7974 24.0019C21.7974 24.0019 22.9314 23.9227 23.1751 23.0693C23.158 22.2324 23.1751 16.0655 23.1751 16.0655C23.1751 16.0655 23.0158 15.6162 22.537 15.4084L22.5338 13.6466C22.5338 13.6466 22.6268 12.8686 23.8046 12.8889H24.6543V22.4199L30.4836 27.0211H31.3258V3.68745L30.3211 3.21487V3.21197L25.5617 0.980469L24.6543 0.986268L24.634 11.7214H23.5438C22.2089 11.7949 21.1807 12.5787 21.155 13.9539V15.3716ZM26.7064 21.638C26.358 21.638 26.0747 21.3616 26.0747 21.0214V4.56401C26.0747 4.22382 26.358 3.94742 26.7064 3.94742C27.0548 3.94742 27.3381 4.22286 27.3381 4.56401V21.0214C27.3381 21.3616 27.0548 21.638 26.7064 21.638ZM35.647 2.27453H35.3295V26.159H35.647V2.27453ZM52.2189 2.40693C50.1037 1.46175 47.6764 0.989167 44.9371 0.989167L40.0996 1.00753C39.9265 1.00753 39.7758 1.08291 39.6486 1.23367C39.5214 1.37187 39.4573 1.53617 39.4573 1.72559L39.3365 26.217C39.335 26.4012 39.402 26.5806 39.5268 26.7263C39.5789 26.7904 39.6467 26.8427 39.725 26.8791C39.8032 26.9155 39.8898 26.935 39.9778 26.936L42.5964 26.9727C43.4739 26.9872 44.3535 26.9921 45.2321 26.9921C47.9137 26.9921 50.2886 26.5137 52.3578 25.5559C54.427 24.5866 56.0505 23.137 57.2305 21.2099C58.4083 19.2818 58.9983 16.8754 58.9983 13.9906C58.9983 11.043 58.3966 8.61047 57.1952 6.69597C55.9928 4.76889 54.334 3.33857 52.2189 2.40693ZM40.6362 25.5182L40.758 2.42626L44.9007 2.40886C47.4103 2.40886 49.6227 2.81766 51.5412 3.6372C53.4597 4.44224 54.9625 5.69667 56.0495 7.39663C57.1471 9.09755 57.6976 11.2962 57.6976 13.9925C57.6976 16.6251 57.1653 18.7996 56.1018 20.5111C55.0384 22.2237 53.5645 23.4974 51.6802 24.3286C49.7959 25.1616 47.6294 25.5762 45.1786 25.5762C44.4037 25.5762 43.6406 25.5695 42.8903 25.5569L40.6362 25.5182ZM6.93161 20.1195H19.515L19.516 19.6373C19.5178 17.8306 19.5128 15.5975 19.5122 15.324L19.5121 15.2962V15.2959C19.512 15.2799 19.5097 14.6898 19.921 14.4793L20.1853 14.3433L20.167 12.9468C20.2181 12.6227 20.5913 10.9918 22.8858 10.7304L23.3121 10.6822L23.3285 0.980624H7.53247L7.084 0.983518L1.31071 0.980624L1.17182 1.00088C0.915272 1.07707 0.234359 1.28057 0.326948 1.88529C0.434004 2.57199 1.39943 2.6289 2.37837 2.6289L2.65806 2.62793C2.77277 2.63894 2.88158 2.68394 2.97055 2.75717C2.66385 3.40915 2.83553 3.87306 3.10847 4.09296C3.43832 4.35915 4.29187 4.50961 4.3806 4.51057C4.48305 4.54675 4.57837 4.60061 4.66223 4.66971C4.45984 4.79824 3.97509 4.9592 3.72122 5.0435L3.71705 5.04489C3.27339 5.19148 3.01492 5.28214 2.84228 5.42295C2.35329 5.82514 2.10543 6.54367 2.65421 7.24097C2.79709 7.41141 2.95178 7.57159 3.11715 7.72031L3.11732 7.72047C3.42781 8.01168 3.72187 8.28748 3.74694 8.60569C3.77198 8.9138 3.32602 9.24498 2.96659 9.5119L2.96476 9.51326L2.96419 9.51369C2.84192 9.60515 2.72735 9.69084 2.63202 9.77173C1.8103 10.4719 2.30121 11.2493 2.5375 11.6225C2.70146 11.882 3.12004 12.2359 3.84629 12.8387L3.85212 12.8436C4.41867 13.3144 5.46407 14.1832 5.57365 14.4639C5.61512 14.5979 5.57943 14.6741 5.34699 14.9393L5.34652 14.9399C5.18846 15.1211 5.00937 15.3264 4.9506 15.6116C4.82522 16.2192 5.42318 16.6908 6.11567 17.2357C6.2979 17.3763 6.47638 17.5217 6.65095 17.6717C6.73004 17.7392 6.87085 17.9311 6.93161 18.3854V20.1195ZM18.5515 19.155H7.89511L7.89318 18.3237C7.81313 17.6881 7.60963 17.2242 7.2875 16.9435C7.10908 16.7863 6.91039 16.6301 6.71461 16.4767L6.67962 16.4491C6.39268 16.2225 5.95137 15.874 5.89674 15.8064C5.91024 15.7611 6.00958 15.6473 6.07516 15.573C6.31049 15.3039 6.704 14.8525 6.4976 14.1813C6.34618 13.6855 5.62862 13.0625 4.46451 12.0961L4.46333 12.0951C4.03617 11.7403 3.45076 11.254 3.35441 11.1066C3.07376 10.6629 3.11329 10.6291 3.25891 10.5047L3.25893 10.5047C3.32741 10.4461 3.40861 10.3854 3.49587 10.3202C3.5106 10.3092 3.5255 10.298 3.54055 10.2868C4.03339 9.92122 4.77796 9.36859 4.70948 8.52661C4.65364 7.83914 4.17005 7.38428 3.78074 7.0181L3.77877 7.01625C3.76537 7.00361 3.75199 6.99104 3.73867 6.97852C3.61783 6.86495 3.50175 6.75584 3.41227 6.64204C3.33897 6.54945 3.20202 6.37585 3.44603 6.17427C3.5203 6.12605 3.80964 6.0296 4.02085 5.96016C4.69212 5.73833 5.38654 5.50879 5.60065 5.03427C5.66087 4.90145 5.68584 4.75536 5.67317 4.61008C5.6605 4.46479 5.61061 4.32523 5.52831 4.20483C5.27562 3.81423 4.71913 3.55478 4.4809 3.55478C4.35552 3.54418 3.95238 3.4458 3.77685 3.3725C3.793 3.28642 3.82261 3.20342 3.86461 3.12656C4.00156 2.85748 3.98709 2.55174 3.82603 2.28844C3.74308 2.15342 3.62832 2.03864 3.49811 1.94605L22.3621 1.94509L22.3496 9.83731C19.7388 10.3311 19.2806 12.3777 19.2083 12.8763L19.216 13.7926C18.6701 14.2276 18.5351 14.9326 18.5476 15.3107C18.5476 15.3107 18.5515 17.336 18.5515 19.155Z" fill="#FCFCFC"/>
</svg>
